PathFileType	4	(X/Y/Z)	/Users/itak/Documents/Research/Walk-IL/dataset/trc/00134_00007.trc
DataRate	CameraRate	NumFrames	NumMarkers	Units	OrigDataRate	OrigDataStartFrame	OrigNumFrames
100.000000	100.000000	4	53	mm	100.000000	185	742
Frame#	Time	RPSI			LPSI			L3			STRN			T10			C7			CLAV			RBAK			LBAK			LSHO			LUPA			LAEL			LAOL			LWTS			LWPS			LFRA			LIFD			LHPS			LHTS			RSHO			RUPA			RAEL			RAOL			RWTS			RWPS			RFRA			RIFD			RHTS			RHPS			RBHD			LFHD			RFHD			LBHD			LHIP			RHIP			RASI			LASI			LKNE			LTHI			LANK			LTIP			LTOE			LMT1			LMT5			LHEE			RKNE			RTHI			RANK			RTIP			RTOE			RMT1			RMT5			RHEE			
		X1	Y1	Z1	X2	Y2	Z2	X3	Y3	Z3	X4	Y4	Z4	X5	Y5	Z5	X6	Y6	Z6	X7	Y7	Z7	X8	Y8	Z8	X9	Y9	Z9	X10	Y10	Z10	X11	Y11	Z11	X12	Y12	Z12	X13	Y13	Z13	X14	Y14	Z14	X15	Y15	Z15	X16	Y16	Z16	X17	Y17	Z17	X18	Y18	Z18	X19	Y19	Z19	X20	Y20	Z20	X21	Y21	Z21	X22	Y22	Z22	X23	Y23	Z23	X24	Y24	Z24	X25	Y25	Z25	X26	Y26	Z26	X27	Y27	Z27	X28	Y28	Z28	X29	Y29	Z29	X30	Y30	Z30	X31	Y31	Z31	X32	Y32	Z32	X33	Y33	Z33	X34	Y34	Z34	X35	Y35	Z35	X36	Y36	Z36	X37	Y37	Z37	X38	Y38	Z38	X39	Y39	Z39	X40	Y40	Z40	X41	Y41	Z41	X42	Y42	Z42	X43	Y43	Z43	X44	Y44	Z44	X45	Y45	Z45	X46	Y46	Z46	X47	Y47	Z47	X48	Y48	Z48	X49	Y49	Z49	X50	Y50	Z50	X51	Y51	Z51	X52	Y52	Z52	X53	Y53	Z53	

186	1.85	-478.5626525878906	1092.969116210938	932.25439453125	-595.7172241210938	1101.821044921875	1000.0390625	-533.4595947265625	1129.87109375	971.5095825195312	-635.9967651367188	1325.689453125	769.9520263671875	-506.0701293945312	1281.360473632812	989.1681518554688	-522.5227661132812	1573.477172851562	954.5006713867188	-616.6763916015625	1461.808959960938	798.159912109375	-425.15625	1385.532348632812	964.9030151367188	-606.0547485351562	1560.38232421875	1014.103698730469	-710.206298828125	1550.011596679688	977.350341796875	-763.344970703125	1425.831298828125	1043.447265625	-798.7660522460938	1211.612182617188	1069.917236328125	-713.1758422851562	1194.180786132812	1087.1953125	-845.955810546875	947.5045166015625	991.4501953125	-816.68994140625	926.198974609375	1072.495727539062	-819.8241577148438	1096.282470703125	1071.781127929688	-840.7452392578125	754.443115234375	982.6924438476562	-839.220703125	851.4823608398438	1057.02197265625	-868.8031005859375	858.3958740234375	993.8768310546875	-397.8828430175781	1541.718994140625	813.5873413085938	-338.6798706054688	1464.214233398438	797.5809936523438	-336.7814636230469	1165.976928710938	789.242431640625	-408.1622009277344	1170.432983398438	852.5252685546875	-460.4276428222656	943.5179443359375	665.3748779296875	-395.3120727539062	914.7639770507812	707.8888549804688	-345.7015380859375	1094.032836914062	757.6212158203125	-516.0197143554688	757.5338745117188	643.6058349609375	-487.1181945800781	840.3946533203125	630.04052734375	-425.8919372558594	821.3067016601562	667.9166870117188	-470.8475341796875	1736.466674804688	884.2964477539062	-640.2505493164062	1808.1826171875	761.7542724609375	-517.9906616210938	1792.333618164062	721.8660888671875	-594.0531616210938	1757.526611328125	933.3740234375	-743.8432006835938	1025.673950195312	975.357177734375	-439.749755859375	981.67919921875	770.6456298828125	-524.77783203125	1057.176635742188	718.6952514648438	-751.6385498046875	1082.278076171875	858.048828125	-859.811279296875	569.01171875	791.5404663085938	-841.019775390625	691.4009399414062	880.5613403320312	-967.0055541992188	58.45269775390625	709.0377807617188	-924.4844970703125	311.2940673828125	809.220703125	-948.0961303710938	141.8585662841797	495.315185546875	-899.543212890625	115.2572479248047	559.314208984375	-1007.795837402344	88.76972961425781	593.753662109375	-893.2858276367188	35.58688354492188	762.6638793945312	-519.30078125	501.948486328125	891.6261596679688	-481.867919921875	767.9898071289062	795.7020874023438	-422.2604370117188	42.98577117919922	1117.4375	-493.5346069335938	371.6470031738281	939.036376953125	-647.84521484375	41.07196044921875	1038.122802734375	-614.72607421875	38.45691299438477	1104.281616210938	-523.8956909179688	46.32498168945312	1026.067016601562	-399.2950744628906	54.22853088378906	1187.966430664062	
187	1.86	-485.7240295410156	1092.357299804688	926.5792236328125	-604.0826416015625	1101.003173828125	992.6641235351562	-541.4536743164062	1129.031127929688	965.0178833007812	-640.9637451171875	1324.541625976562	761.64306640625	-514.2223510742188	1280.454467773438	982.2135620117188	-530.1790161132812	1572.627685546875	947.4652709960938	-622.0509643554688	1460.72607421875	789.9244995117188	-432.8466491699219	1384.70166015625	959.4978637695312	-614.3624267578125	1559.55029296875	1005.963989257812	-718.0980224609375	1549.138671875	967.8549194335938	-771.7877807617188	1424.94775390625	1033.5439453125	-806.9547729492188	1210.696166992188	1060.02392578125	-721.5022583007812	1193.473388671875	1078.063720703125	-852.7050170898438	946.1141967773438	982.1106567382812	-824.0870971679688	925.2927856445312	1063.451171875	-827.7569580078125	1095.338500976562	1062.041137695312	-847.1160888671875	753.0625610351562	974.2717895507812	-846.392333984375	850.4738159179688	1048.037475585938	-875.4224853515625	857.0390625	984.7286376953125	-403.5057983398438	1540.672119140625	808.3587036132812	-343.9724731445312	1463.229858398438	793.3472290039062	-341.0498962402344	1165.132446289062	786.4559326171875	-413.4383544921875	1169.61572265625	848.4876708984375	-460.6880798339844	940.4297485351562	662.8186645507812	-395.8782043457031	912.77001953125	706.7302856445312	-348.9340515136719	1092.91748046875	755.3678588867188	-514.2000122070312	753.7017211914062	642.2667846679688	-485.8021545410156	836.6302490234375	628.2393798828125	-425.2339172363281	818.6142578125	667.4168701171875	-477.25244140625	1735.41845703125	877.9156494140625	-644.9286499023438	1807.162719726562	753.0537719726562	-522.2672729492188	1791.240356445312	714.897705078125	-601.1378173828125	1756.581787109375	925.1859130859375	-751.9429321289062	1024.546875	965.549560546875	-444.5873413085938	980.8433837890625	765.619873046875	-528.847412109375	1055.984741210938	712.456298828125	-757.721435546875	1081.166015625	848.2981567382812	-864.051025390625	567.75439453125	780.3971557617188	-846.3391723632812	689.9661254882812	869.6773071289062	-967.6509399414062	56.16445159912109	697.9627685546875	-927.1498413085938	309.4071655273438	797.8672485351562	-946.327392578125	139.6270141601562	484.4697875976562	-898.4222412109375	113.1792602539062	549.0714111328125	-1007.12451171875	85.89888763427734	582.0903930664062	-894.475830078125	33.66997528076172	752.53515625	-523.6371459960938	501.00634765625	886.6466674804688	-486.0826110839844	767.1527709960938	790.7354125976562	-422.5276184082031	44.77703475952148	1117.607421875	-496.6505126953125	371.1565856933594	935.4161987304688	-647.951171875	41.01898574829102	1037.973388671875	-614.8009033203125	38.89873504638672	1104.002319335938	-524.0269165039062	46.49975967407227	1025.885131835938	-399.9817199707031	57.27148818969727	1188.110717773438	
188	1.87	-493.0295715332031	1091.755615234375	920.674560546875	-612.5230102539062	1100.250732421875	985.04443359375	-549.482666015625	1128.271118164062	958.30712890625	-645.9524536132812	1323.513427734375	753.2059326171875	-522.4202880859375	1279.64453125	975.1674194335938	-537.9146728515625	1571.865600585938	940.3027954101562	-627.4815063476562	1459.75537109375	781.5794677734375	-440.6703796386719	1383.951049804688	953.9166259765625	-622.7551879882812	1558.80517578125	997.672607421875	-726.052490234375	1548.355834960938	958.1980590820312	-780.2653198242188	1424.1640625	1023.525573730469	-815.0667114257812	1209.87109375	1050.108764648438	-729.7483520507812	1192.87255859375	1068.837158203125	-859.4588623046875	944.867919921875	972.6821899414062	-831.3934326171875	924.4649658203125	1054.266357421875	-835.6022338867188	1094.473266601562	1052.258178710938	-853.5950317382812	751.8570556640625	965.6370849609375	-853.4848022460938	849.5507202148438	1038.928100585938	-882.0428466796875	855.8273315429688	975.5050659179688	-409.2219543457031	1539.743896484375	803.0347290039062	-349.3381958007812	1462.385498046875	788.9751586914062	-345.3889770507812	1164.4658203125	783.5396728515625	-418.8343811035156	1168.925415039062	844.2935791015625	-460.9132385253906	937.4061889648438	660.351806640625	-396.4058837890625	910.947021484375	705.63916015625	-352.2193908691406	1091.98876953125	753.0159912109375	-512.196533203125	749.886962890625	641.2589111328125	-484.414794921875	832.8919067382812	626.652587890625	-424.447509765625	816.0401611328125	667.083740234375	-483.7144165039062	1734.45556640625	871.4274291992188	-649.6347045898438	1806.248779296875	744.2530517578125	-526.5508422851562	1790.235229492188	707.8350219726562	-608.2717895507812	1755.720825195312	916.9032592773438	-760.0377807617188	1023.500915527344	955.5228271484375	-449.7018432617188	980.0747680664062	760.2452392578125	-532.95703125	1054.888671875	706.103271484375	-763.8285522460938	1080.1552734375	838.3248901367188	-868.0695190429688	566.3975219726562	768.9979248046875	-851.41796875	688.608154296875	858.4061279296875	-967.5042724609375	53.50840759277344	688.6677856445312	-929.1371459960938	307.3429870605469	787.1824951171875	-944.3062133789062	136.1995849609375	475.1096496582031	-896.9071655273438	110.0760498046875	540.2395629882812	-1005.9189453125	82.39414215087891	572.293701171875	-894.820068359375	31.61145973205566	744.1141357421875	-528.0556030273438	500.0763549804688	881.3431396484375	-490.3990783691406	766.3565063476562	785.5158081054688	-422.90869140625	46.78731536865234	1117.764404296875	-499.78173828125	370.7511596679688	931.5795288085938	-648.1082763671875	40.95427703857422	1037.765625	-614.9090576171875	39.38954544067383	1103.654663085938	-524.2247924804688	46.67403411865234	1025.639892578125	-400.8141784667969	60.67226028442383	1188.221069335938	
189	1.88	-500.486572265625	1091.163452148438	914.5339965820312	-621.0338134765625	1099.584716796875	977.1638793945312	-557.5466918945312	1127.59375	951.3653564453125	-650.9645385742188	1322.616577148438	744.62255859375	-530.6672973632812	1278.93408203125	968.0526733398438	-545.7162475585938	1571.195678710938	933.0241088867188	-632.9609375	1458.90478515625	773.1213989257812	-448.626708984375	1383.281982421875	948.1634521484375	-631.2416381835938	1558.1513671875	989.2340087890625	-734.0702514648438	1547.66064453125	948.3726806640625	-788.7894287109375	1423.4765625	1013.373718261719	-823.14599609375	1209.142822265625	1040.145385742188	-737.953125	1192.382690429688	1059.526733398438	-866.20849609375	943.7607421875	963.1394653320312	-838.6421508789062	923.7141723632812	1044.941528320312	-843.3986206054688	1093.689453125	1042.411987304688	-860.1119384765625	750.8189086914062	956.7808837890625	-860.5185546875	848.716064453125	1029.674560546875	-888.6553955078125	854.7476196289062	966.1503295898438	-415.0213012695312	1538.9404296875	797.62841796875	-354.7734375	1461.681274414062	784.4913330078125	-349.7865600585938	1163.976684570312	780.532958984375	-424.3535461425781	1168.361572265625	839.960693359375	-461.1094970703125	934.4859619140625	657.966552734375	-396.948486328125	909.3077392578125	704.6185913085938	-355.5658264160156	1091.248168945312	750.5996704101562	-510.0391540527344	746.148193359375	640.5398559570312	-482.9629211425781	829.2337646484375	625.25830078125	-423.5460815429688	813.6221923828125	666.8929443359375	-490.2324829101562	1733.598388671875	864.8439331054688	-654.3687133789062	1805.452758789062	735.3558959960938	-530.8356323242188	1789.333374023438	700.6798706054688	-615.453857421875	1754.965454101562	908.5256958007812	-768.1273193359375	1022.569030761719	945.277587890625	-455.0793151855469	979.361572265625	754.5259399414062	-537.1256103515625	1053.895385742188	699.5963134765625	-769.9583129882812	1079.243041992188	828.1170654296875	-871.8344116210938	564.9357299804688	757.3919677734375	-856.2431030273438	687.3388061523438	846.7792358398438	-966.7989501953125	50.61537170410156	681.0026245117188	-930.552978515625	305.1763610839844	777.1218872070312	-941.9676513671875	131.5354614257812	467.0311584472656	-895.00927734375	105.9792175292969	532.699462890625	-1004.243041992188	78.29847717285156	564.1427001953125	-894.5928344726562	29.62327766418457	737.3477783203125	-532.5469970703125	499.1448364257812	875.6708374023438	-494.8290405273438	765.58935546875	780.0182495117188	-423.4132690429688	49.0368766784668	1117.897705078125	-502.9205017089844	370.4389038085938	927.498779296875	-648.3199462890625	40.87838745117188	1037.485961914062	-615.0684204101562	39.93684768676758	1103.222412109375	-524.4663696289062	46.85817718505859	1025.317749023438	-401.8173217773438	64.46292114257812	1188.281005859375	
